<?xml version="1.0" encoding="UTF-8" standalone="no"?>
<!-- Created with Inkscape (http://www.inkscape.org/) -->

<svg
   version="1.1"
   id="svg1"
   width="548.56488"
   height="141.65067"
   viewBox="0 0 548.56488 141.65066"
   xmlns="http://www.w3.org/2000/svg"
   xmlns:svg="http://www.w3.org/2000/svg">
  <defs
     id="defs1">
    <clipPath
       clipPathUnits="userSpaceOnUse"
       id="clipPath4">
      <path
         d="M 0,242.09 H 454.427 V 0 H 0 Z"
         transform="translate(-28.526001,-109.041)"
         id="path4" />
    </clipPath>
    <clipPath
       clipPathUnits="userSpaceOnUse"
       id="clipPath6">
      <path
         d="M 0,242.09 H 454.427 V 0 H 0 Z"
         transform="translate(-92.5012,-120.72641)"
         id="path6" />
    </clipPath>
    <clipPath
       clipPathUnits="userSpaceOnUse"
       id="clipPath8">
      <path
         d="M 0,242.09 H 454.427 V 0 H 0 Z"
         transform="translate(-172.6509,-88.676805)"
         id="path8" />
    </clipPath>
    <clipPath
       clipPathUnits="userSpaceOnUse"
       id="clipPath10">
      <path
         d="M 0,242.09 H 454.427 V 0 H 0 Z"
         transform="translate(-181.8187,-140.81321)"
         id="path10" />
    </clipPath>
    <clipPath
       clipPathUnits="userSpaceOnUse"
       id="clipPath12">
      <path
         d="M 0,242.09 H 454.427 V 0 H 0 Z"
         transform="translate(-159.92481,-109.1109)"
         id="path12" />
    </clipPath>
  </defs>
  <g
     id="g1"
     transform="translate(-30.513334,-89.404011)">
    <g
       id="group-MC0">
      <path
         id="path2"
         d="m 223.544,68.799 h -1.553 v 106.238 h 1.553 z"
         style="fill:#656263;fill-opacity:1;fill-rule:nonzero;stroke:none"
         transform="matrix(1.3333333,0,0,-1.3333333,0,322.78667)" />
      <path
         id="path3"
         d="m 0,0 c 0,24.669 0.143,15.786 0.071,29.043 0,2.665 0.215,3.417 0.786,3.417 0.571,0 1.785,-1.504 2.499,-2.187 C 4.427,29.111 15.067,18.109 26.064,6.834 33.133,-0.41 40.916,-8.747 43.201,-11.002 l -0.785,34.715 c -0.072,4.442 -0.572,5.945 -2.785,6.492 -1.286,0.273 -2.428,0.341 -3.071,0.341 -0.785,0 -0.999,0.205 -0.999,0.479 0,0.41 0.571,0.478 1.428,0.478 3.213,0 6.641,-0.205 7.426,-0.205 0.785,0 3.142,0.205 6.07,0.205 0.785,0 1.285,-0.068 1.285,-0.478 0,-0.274 -0.286,-0.41 -0.786,-0.479 -0.571,-0.068 -0.999,-0.136 -1.856,-0.273 -2,-0.41 -2.499,-1.435 -2.499,-6.15 l -0.143,-39.909 c 0,-4.51 -0.143,-4.852 -0.643,-4.852 -0.571,0 -1.428,0.752 -5.213,4.374 C 39.845,-15.581 29.562,-5.536 21.993,2.255 13.71,10.797 5.641,19.408 3.356,21.868 l 0.928,-32.734 c 0.143,-5.603 0.857,-7.38 2.785,-7.927 1.357,-0.341 2.928,-0.41 3.571,-0.41 0.357,0 0.571,-0.136 0.571,-0.41 0,-0.41 -0.429,-0.546 -1.285,-0.546 -4.071,0 -6.927,0.205 -7.57,0.205 -0.642,0 -3.641,-0.205 -6.855,-0.205 -0.714,0 -1.142,0.068 -1.142,0.546 0,0.274 0.214,0.41 0.571,0.41 0.571,0 1.857,0.069 2.928,0.41 1.785,0.479 2.142,2.46 2.142,8.679 z"
         style="fill:#656263;fill-opacity:1;fill-rule:nonzero;stroke:none"
         transform="matrix(1.3333333,0,0,-1.3333333,38.034667,177.39867)"
         clip-path="url(#clipPath4)" />
      <path
         id="path5"
         d="m 0,0 c 0,10.66 0,12.574 -0.171,14.761 -0.171,2.323 -0.854,3.417 -3.673,3.895 -0.598,0.137 -1.708,0.137 -2.477,0.205 -0.598,0.068 -1.11,0.137 -1.11,0.41 0,0.41 0.427,0.547 1.366,0.547 1.965,0 4.271,0 9.653,-0.205 0.598,0 17.596,0 19.561,0.068 1.879,0.068 3.416,0.205 3.929,0.41 0.512,0.205 0.683,0.273 0.94,0.273 0.256,0 0.341,-0.273 0.341,-0.615 0,-0.478 -0.512,-1.298 -0.683,-3.212 -0.086,-1.025 -0.171,-2.323 -0.342,-4.1 -0.085,-0.683 -0.341,-1.161 -0.683,-1.161 -0.513,0 -0.684,0.341 -0.684,0.888 0,0.888 -0.17,1.708 -0.427,2.255 -0.598,1.572 -2.391,2.255 -6.15,2.529 -1.452,0.136 -10.763,0.205 -11.702,0.205 -0.342,0 -0.513,-0.205 -0.513,-0.684 V -2.392 c 0,-0.478 0.086,-0.683 0.513,-0.683 1.11,0 11.617,0 13.581,0.137 2.307,0.136 3.417,0.341 4.271,1.161 0.427,0.41 0.684,0.684 1.025,0.684 0.257,0 0.428,-0.137 0.428,-0.547 0,-0.41 -0.428,-1.572 -0.684,-3.827 -0.256,-2.118 -0.256,-3.69 -0.342,-4.647 -0.085,-0.683 -0.256,-1.025 -0.597,-1.025 -0.513,0 -0.598,0.547 -0.598,1.094 0,0.614 -0.086,1.298 -0.342,1.913 -0.342,1.025 -1.367,1.982 -4.442,2.255 -2.306,0.205 -10.763,0.342 -12.215,0.342 -0.427,0 -0.598,-0.205 -0.598,-0.479 v -6.013 c 0,-2.324 -0.085,-10.251 0,-11.686 0.171,-2.801 0.684,-4.305 2.819,-4.988 1.452,-0.479 3.759,-0.615 7.09,-0.615 2.563,0 5.381,0.068 7.688,0.615 2.733,0.683 3.673,2.118 4.356,5.057 0.171,0.751 0.342,1.025 0.769,1.025 0.512,0 0.512,-0.547 0.512,-1.025 0,-0.547 -0.683,-5.194 -1.11,-6.629 -0.598,-1.777 -1.281,-1.777 -4.613,-1.777 -6.321,0 -9.14,0.137 -12.471,0.205 -3.417,0.069 -7.346,0.205 -10.677,0.205 -2.05,0 -4.1,-0.273 -6.321,-0.205 -0.94,0 -1.367,0.137 -1.367,0.547 0,0.205 0.427,0.342 0.94,0.41 0.854,0.068 1.366,0.068 1.964,0.205 1.794,0.341 2.904,1.299 3.075,6.423 0.086,2.666 0.171,6.151 0.171,12.233 z"
         style="fill:#656263;fill-opacity:1;fill-rule:nonzero;stroke:none"
         transform="matrix(1.3333333,0,0,-1.3333333,123.33493,161.81813)"
         clip-path="url(#clipPath6)" />
      <path
         id="path7"
         d="m 0,0 c 0,0 14.894,45.298 37.638,56.131 0,0 -14.096,9.612 -37.638,-34.923 0,0 -5.703,11.873 -10.399,12.833 -0.786,0.161 -1.545,0.016 -2.243,-0.543 l -2.543,-2.312 C -15.185,31.186 -3.01,17.716 0,0"
         style="fill:#d21a3a;fill-opacity:1;fill-rule:nonzero;stroke:none"
         transform="matrix(1.3333333,0,0,-1.3333333,230.2012,204.55093)"
         clip-path="url(#clipPath8)" />
      <path
         id="path9"
         d="m 0,0 c -2.087,0 -5.351,-0.209 -6.532,-0.209 -0.9,0 -3.818,0.209 -7.291,0.209 -1.323,0 -1.945,-0.141 -1.945,-0.696 0,-0.486 0.554,-0.557 1.182,-0.557 0.899,0 1.945,-0.068 2.776,-0.345 0.623,-0.209 0.905,-0.766 0.905,-1.32 0,-0.625 -0.282,-1.669 -0.627,-2.571 -0.579,-1.591 -2.045,-5.324 -3.836,-9.838 1.362,-0.934 2.649,-2.2 3.832,-3.608 1.654,3.647 3.001,6.604 4.658,10.598 1.878,4.446 2.919,5.628 3.818,6.253 1.25,0.831 2.709,0.831 3.405,0.831 0.696,0 1.114,0.142 1.114,0.625 C 1.459,-0.141 0.899,0 0,0"
         style="fill:#656263;fill-opacity:1;fill-rule:nonzero;stroke:none"
         transform="matrix(1.3333333,0,0,-1.3333333,242.42493,135.03573)"
         clip-path="url(#clipPath10)" />
      <path
         id="path11"
         d="m 0,0 c -1.357,-3.406 -2.543,-6.391 -3.32,-8.377 h -0.277 l -11.951,31.533 c -0.972,2.503 -1.594,4.446 -1.594,5.351 0,0.625 0.209,1.111 0.689,1.459 0.56,0.416 1.601,0.484 2.71,0.484 0.628,0 1.046,0.141 1.046,0.624 0,0.487 -0.764,0.628 -1.601,0.628 -3.472,0 -6.804,-0.209 -8.54,-0.209 -2.432,0 -6.391,0.209 -10.073,0.209 -1.04,0 -1.804,-0.07 -1.804,-0.628 0,-0.415 0.204,-0.624 0.831,-0.624 0.555,0 1.669,0 2.709,-0.278 2.5,-0.692 3.683,-1.459 5.278,-5.279 l 17.504,-42.438 c 1.318,-3.267 1.736,-4.239 2.641,-4.239 0.973,0 1.386,1.111 3.196,5.141 1.02,2.319 2.817,6.473 5.22,11.992 C 1.777,-2.956 0.873,-1.399 0,0"
         style="fill:#656263;fill-opacity:1;fill-rule:nonzero;stroke:none"
         transform="matrix(1.3333333,0,0,-1.3333333,213.23307,177.30547)"
         clip-path="url(#clipPath12)" />
      <path
         id="path13"
         d="m 7.5596141,-13.348295 c 0,-4.5 0,-5.308594 0.058594,-6.234375 0.058594,-1.007813 0.28125,-1.5 1.0664063,-1.640625 0.3398437,-0.05859 0.515625,-0.09375 0.7148437,-0.09375 0.1171875,0 0.234375,-0.05859 0.234375,-0.164063 0,-0.175781 -0.140625,-0.234375 -0.4570312,-0.234375 -0.8671875,0 -2.6835938,0.08203 -2.8359375,0.08203 -0.140625,0 -1.9570313,-0.08203 -2.90625,-0.08203 -0.3164063,0 -0.46875,0.05859 -0.46875,0.234375 0,0.105469 0.1171875,0.164063 0.234375,0.164063 0.1992187,0 0.5742187,0.03516 0.890625,0.117187 0.6445312,0.140625 0.9257812,0.632813 0.984375,1.617188 0.058594,0.925781 0.058594,1.734375 0.058594,6.234375 v 5.0742184 c 0,2.765625 0,5.0390625 -0.140625,6.2578125 -0.1171875,0.8320313 -0.2578125,1.46484379 -0.84375,1.58203129 -0.2578125,0.0585938 -0.5976562,0.1171875 -0.8554687,0.1171875 -0.1757813,0 -0.234375,0.0820313 -0.234375,0.17578125 0,0.1640625 0.140625,0.22265625 0.4570312,0.22265625 0.8671875,0 2.6835938,-0.0820312525 2.8242188,-0.0820312525 0.1523437,0 1.96875,0.0820312525 3.5507812,0.0820312525 0.3164071,0 0.4570321,-0.0820312525 0.4570321,-0.22265625 0,-0.09375 -0.04687,-0.17578125 -0.222657,-0.17578125 -0.2578126,0 -0.8906251,-0.0585938 -1.3007813,-0.1171875 -0.8671875,-0.1171875 -1.0429688,-0.74999999 -1.125,-1.58203129 -0.140625,-1.21875 -0.140625,-3.4921875 -0.140625,-6.2578125 z m -1.21875,-10.59375 c 0.9023437,0 1.5,-0.691407 1.5,-1.558594 0,-0.855469 -0.65625,-1.40625 -1.5,-1.40625 -1.03125,0 -1.4648438,0.867187 -1.4648438,1.5 0,0.65625 0.4335938,1.464844 1.4648438,1.464844 z M 19.840864,0.49154844 c 1.558594,0 3.117188,-0.3515625 4.359375,-1.21875 1.992188,-1.40625004 2.449219,-3.59765624 2.449219,-4.78125004 0,-2.3085937 -0.808594,-4.1015625 -4.207031,-6.7734374 l -0.808594,-0.644531 c -2.765625,-2.15625 -3.515625,-3.199219 -3.515625,-4.839844 0,-2.109375 1.558594,-3.339844 3.539062,-3.339844 2.660157,0 3.433594,1.207031 3.609375,1.523438 0.175782,0.316406 0.351563,1.089843 0.375,1.441406 0.02344,0.234375 0.05859,0.375 0.234375,0.375 0.140625,0 0.199219,-0.199219 0.199219,-0.667969 0,-1.957031 0.117188,-2.90625 0.117188,-3.046875 0,-0.152344 -0.05859,-0.210937 -0.292969,-0.210937 -0.234375,0 -0.457031,-0.02344 -1.007813,-0.140625 -0.726562,-0.175782 -1.558593,-0.292969 -2.683593,-0.292969 -3.65625,0 -5.964844,2.109375 -5.964844,5.191406 0,1.96875 0.691406,3.75 3.75,6.257813 l 1.289062,1.0664059 c 2.484375,2.0507813 3.316407,3.2109375 3.316407,5.1914063 0,1.8515625 -1.347657,3.84374999 -4.125,3.84374999 -1.921875,0 -3.832032,-0.80859379 -4.265625,-2.94140629 -0.08203,-0.4101562 -0.08203,-0.8085937 -0.08203,-1.0664062 0,-0.234375 -0.03516,-0.3164063 -0.199218,-0.3164063 -0.152344,0 -0.210938,0.140625 -0.234375,0.4570313 -0.03516,0.4570312 -0.140625,1.6171875 -0.140625,3.0585937 0,0.77343754 0.02344,0.89062504 0.433593,1.08984379 1.171875,0.5859375 2.507813,0.78515625 3.855469,0.78515625 z m 20.563477,-20.96484344 3.632812,0.05859 c 2.777344,0.05859 3.46875,0.714844 3.550781,1.582032 l 0.03516,0.316406 c 0.02344,0.398437 0.08203,0.492187 0.222656,0.492187 0.117187,0 0.199219,-0.117187 0.199219,-0.375 0,-0.316406 0.09375,-2.308593 0.09375,-3.175781 0,-0.175781 0,-0.339844 -0.152344,-0.339844 -0.105469,0 -0.363281,0.08203 -0.796875,0.140625 -0.46875,0.08203 -1.125,0.140625 -2.050781,0.140625 h -10.81641 c -0.351562,0 -1.441406,-0.05859 -2.273437,-0.140625 -0.785156,-0.05859 -1.066406,-0.351562 -1.277344,-0.351562 -0.117187,0 -0.222656,0.375 -0.28125,0.550781 -0.05859,0.234375 -0.632812,2.71875 -0.632812,3 0,0.175781 0.04687,0.257813 0.140625,0.257813 0.117187,0 0.199218,-0.05859 0.28125,-0.28125 0.09375,-0.210938 0.175781,-0.410157 0.492187,-0.902344 0.46875,-0.691406 1.160156,-0.890625 2.941406,-0.914063 l 4.277344,-0.05859 v 12.1992184 c 0,2.765625 0,5.0390625 -0.152344,6.2578125 -0.117187,0.8320313 -0.257812,1.46484379 -0.832031,1.58203129 -0.257812,0.0585938 -0.609375,0.1171875 -0.867187,0.1171875 -0.175782,0 -0.234375,0.0820313 -0.234375,0.17578125 0,0.1640625 0.152343,0.22265625 0.46875,0.22265625 0.867187,0 2.683593,-0.0820312525 2.824218,-0.0820312525 0.140625,0 1.957032,0.0820312525 3.550782,0.0820312525 0.316406,0 0.457031,-0.0820312525 0.457031,-0.22265625 0,-0.09375 -0.05859,-0.17578125 -0.234375,-0.17578125 -0.257813,0 -0.890625,-0.0585938 -1.289063,-0.1171875 -0.867187,-0.1171875 -1.042968,-0.74999999 -1.125,-1.58203129 -0.152343,-1.21875 -0.152343,-3.4921875 -0.152343,-6.2578125 z m 10.101562,17.3906247 c -0.527344,1.4414062 -1.101562,2.53124999 -2.425781,2.70703124 -0.234375,0.0234375 -0.632813,0.0585938 -0.832031,0.0585938 -0.152344,0 -0.257813,0.0585938 -0.257813,0.17578125 0,0.1640625 0.164063,0.22265625 0.539063,0.22265625 1.359375,0 2.941406,-0.0820312525 3.257812,-0.0820312525 0.316406,0 1.558594,0.0820312525 2.25,0.0820312525 0.269531,0 0.433594,-0.05859375 0.433594,-0.22265625 0,-0.1171875 -0.08203,-0.17578125 -0.28125,-0.17578125 h -0.292969 c -0.492187,0 -1.089844,-0.2578125 -1.089844,-0.83203134 0,-0.5273437 0.140625,-1.21875 0.398438,-1.9335937 l 1.734375,-5.109375 c 0.05859,-0.140625 0.140625,-0.234375 0.28125,-0.234375 h 6.199219 c 0.152343,0 0.210937,0.058594 0.269531,0.1757812 l 2.671875,7.1015625 c 0.175781,0.45703134 0,0.71484384 -0.164063,0.77343759 -0.117187,0.0234375 -0.210937,0.0820313 -0.210937,0.19921875 0,0.1757812475 0.316406,0.1757812475 0.867187,0.19921875 1.992188,0.05859375 4.101563,0.05859375 4.535157,0.05859375 0.316406,0 0.574218,-0.05859375 0.574218,-0.22265625 0,-0.15234375 -0.117187,-0.17578125 -0.292968,-0.17578125 -0.28125,0 -0.714844,-0.0351563 -1.148438,-0.17578125 -0.609375,-0.17578125 -1.441406,-0.63281259 -2.484375,-3.19921879 -1.757812,-4.3828125 -6.28125,-16.2890627 -6.714844,-17.3906247 -0.351562,-0.890625 -0.46875,-1.042969 -0.632812,-1.042969 -0.175781,0 -0.292969,0.175781 -0.644531,1.125 z m 4.03125,-6.375 c -0.08203,0 -0.140625,-0.058594 -0.08203,-0.1992188 l 2.542969,-7.7929689 c 0.140625,-0.433594 0.28125,-0.433594 0.421875,0 l 2.742187,7.7929689 c 0.03516,0.1054688 0.03516,0.1992188 -0.117187,0.1992188 z m 18.960938,-8.1914067 c 0.914062,1.03125 4.171875,4.675782 7.523437,8.2734379 3.058594,3.2929688 7.207031,7.5234375 7.523438,7.8164063 1.535156,1.53515624 1.875,1.85156249 2.109375,1.85156249 0.199218,0 0.257812,-0.15234375 0.257812,-2.05078129 l 0.05859,-16.8984374 c 0,-1.734375 0.117187,-2.367188 1.066406,-2.566406 0.339844,-0.09375 0.550781,-0.09375 0.691406,-0.09375 0.199219,0 0.316407,-0.08203 0.316407,-0.199219 0,-0.175781 -0.199219,-0.199219 -0.515625,-0.199219 -1.183594,0 -2.132813,0.08203 -2.449219,0.08203 -0.316406,0 -1.710938,-0.08203 -3,-0.08203 -0.351563,0 -0.585938,0.02344 -0.585938,0.199219 0,0.117187 0.03516,0.199219 0.234375,0.199219 0.234375,0 0.890625,0.03516 1.417969,0.152343 0.890625,0.222657 1.089844,0.855469 1.125,2.730469 l 0.316406,14.6601564 c -0.925781,-0.9609375 -4.066406,-4.4765625 -6.925781,-7.5351564 -4.441406,-4.757812 -8.742187,-9.398437 -9.164062,-9.890625 -0.292969,-0.28125 -0.785157,-0.925781 -1.019532,-0.925781 -0.222656,0 -0.316406,0.316406 -0.316406,1.441406 l -0.02344,16.5351564 c 0,2.625 -0.140625,3.45703129 -0.867188,3.65625004 -0.433594,0.140625 -0.949219,0.17578125 -1.183594,0.17578125 -0.140625,0 -0.234375,0.0585938 -0.234375,0.17578125 0,0.19921875 0.175782,0.22265625 0.46875,0.22265625 1.300782,0 2.507813,-0.0820312525 2.765625,-0.0820312525 0.257813,0 1.417969,0.0820312525 3.058594,0.0820312525 0.339844,0 0.515625,-0.05859375 0.515625,-0.22265625 0,-0.1171875 -0.08203,-0.17578125 -0.222656,-0.17578125 -0.269531,0 -0.902344,-0.0351563 -1.453125,-0.17578125 -0.773438,-0.234375 -1.066406,-0.98437504 -1.113281,-3.33984374 z m 26.903319,9.3750004 c 0,2.765625 0,5.0390625 -0.14062,6.2578125 -0.11719,0.8320313 -0.25782,1.46484379 -0.843754,1.58203129 -0.257813,0.0585938 -0.597656,0.1171875 -0.855469,0.1171875 -0.175781,0 -0.234375,0.0820313 -0.234375,0.17578125 0,0.1640625 0.140625,0.22265625 0.457031,0.22265625 0.433594,0 1.101563,-0.05859375 1.675777,-0.05859375 0.60938,-0.0234375025 1.08985,-0.0234375025 1.14844,-0.0234375025 0.11719,0 0.92578,0.0234375025 1.76953,0.0820312525 0.83203,0.03515625 1.75782,0.09375 2.07422,0.09375 4.9336,0 7.34766,-3.19921879 7.34766,-6.29296879 0,-3.375 -2.84766,-5.4140624 -4.98047,-6.0820314 1.34766,-1.417969 2.70703,-2.824219 2.70703,-5.191406 0,-1.441406 -1.04297,-4.324219 -5.76562,-4.324219 -1.33594,0 -2.46094,0.08203 -3.15235,0.08203 -0.14062,0 -1.957029,-0.08203 -3.25781,-0.08203 -0.316407,0 -0.457032,0.05859 -0.457032,0.234375 0,0.105469 0.117188,0.164063 0.234375,0.164063 0.257813,0 0.75,0.03516 0.972657,0.09375 0.96094,0.199218 1.18359,0.65625 1.24219,1.640625 0.0586,0.925781 0.0586,1.734375 0.0586,6.234375 z M 102.71,-20.449858 c 0,-0.175781 0.082,-0.257812 0.33985,-0.316406 0.46875,-0.117188 1.07812,-0.140625 1.39453,-0.140625 2.82422,0 3.89062,2.566406 3.89062,4.957031 0,1.183594 -0.43359,2.226563 -1.04296,2.917969 -0.59766,0.691406 -1.00782,0.75 -2.625,0.75 -1.06641,0 -1.58204,-0.09375 -1.75782,-0.117188 -0.14062,-0.05859 -0.19922,-0.117187 -0.19922,-0.316406 z m 0,9.140625 c 0,-0.140625 0.0586,-0.199219 0.17579,-0.199219 0.43359,0 1.875,0 2.25,0.05859 0.6914,0.08203 1.40625,0.175781 2.39062,0.832031 2.21484,1.5351567 2.80078,4.0429692 2.80078,5.7773442 0,3.2578125 -2.50781,4.08984374 -4.0664,4.08984374 -0.52735,0 -1.75782,-0.0585938 -2.54297,-0.43359374 -0.89063,-0.4335938 -0.89063,-0.8320313 -0.98438,-2.25 C 102.71,-3.8678266 102.71,-7.4420453 102.71,-9.6568891 Z m 15.83204,2.1679689 c 0,4.2070313 1.10156,6.2226563 2.50781,7.5820313 2.05078,1.93359374 4.96875,2.05078124 5.9414,2.05078124 1.71094,0 3.86719,-0.29296875 5.94141,-2.13281254 2.30859,-2.0507812 2.66016,-5.5078125 2.66016,-8.6249999 v -3.082031 c 0,-4.5 0,-5.308594 0.0586,-6.234375 0.0586,-1.007813 0.28125,-1.476563 1.06641,-1.640625 0.33984,-0.05859 0.51562,-0.09375 0.71484,-0.09375 0.11719,0 0.23438,-0.05859 0.23438,-0.164063 0,-0.175781 -0.14063,-0.234375 -0.45704,-0.234375 -0.86718,0 -2.22656,0.08203 -2.42578,0.08203 -0.17578,0 -1.75781,-0.08203 -3.05859,-0.08203 -0.31641,0 -0.45703,0.05859 -0.45703,0.234375 0,0.105469 0.10547,0.164063 0.22265,0.164063 0.25782,0 0.75,0.03516 0.98438,0.09375 0.94922,0.199218 1.18359,0.65625 1.24219,1.640625 0.0586,0.925781 0.0586,1.734375 0.0586,6.234375 v 3.5976559 c 0,2.9765625 -0.35156,5.4257813 -1.67578,7.0664063 -1.04297,1.2421875 -2.76563,2.07421874 -4.52344,2.07421874 -1.65234,0 -2.9414,-0.2578125 -4.35937,-1.58203124 -1.24219,-1.1835938 -2.16797,-2.9765625 -2.16797,-7.125 v -4.0312497 c 0,-4.5 0,-5.308594 0.0586,-6.234375 0.0586,-1.007813 0.29297,-1.523438 1.06641,-1.640625 0.35156,-0.05859 0.52734,-0.09375 0.72656,-0.09375 0.11719,0 0.23438,-0.05859 0.23438,-0.164063 0,-0.175781 -0.15235,-0.234375 -0.46875,-0.234375 -0.86719,0 -2.58985,0.08203 -2.84766,0.08203 -0.26953,0 -2.02734,-0.08203 -3.31641,-0.08203 -0.3164,0 -0.46875,0.05859 -0.46875,0.234375 0,0.105469 0.11719,0.164063 0.23438,0.164063 0.25781,0 0.75,0.03516 0.98437,0.09375 0.94922,0.199218 1.17188,0.65625 1.23047,1.640625 0.0586,0.925781 0.0586,1.734375 0.0586,6.234375 z m 28.04003,-4.2070309 c 0,-4.5 0,-5.308594 0.0586,-6.234375 0.0586,-1.007813 0.28125,-1.5 1.125,-1.640625 0.33984,-0.05859 0.75,-0.09375 0.94922,-0.09375 0.11718,0 0.23437,-0.05859 0.23437,-0.164063 0,-0.175781 -0.15234,-0.234375 -0.46875,-0.234375 -0.86719,0 -2.96484,0.08203 -3.11719,0.08203 -0.14062,0 -1.95703,-0.08203 -3.25781,-0.08203 -0.3164,0 -0.45703,0.05859 -0.45703,0.234375 0,0.105469 0.11719,0.164063 0.23438,0.164063 0.25781,0 0.75,0.03516 0.97265,0.09375 0.96094,0.199218 1.1836,0.65625 1.24219,1.640625 0.0586,0.925781 0.0586,1.734375 0.0586,6.234375 v 5.0742184 c 0,2.765625 0,5.0390625 -0.14062,6.2578125 -0.11719,0.8320313 -0.25781,1.46484379 -0.84375,1.58203129 -0.25781,0.0585938 -0.59766,0.1171875 -0.85547,0.1171875 -0.17578,0 -0.23438,0.0820313 -0.23438,0.17578125 0,0.1640625 0.14063,0.22265625 0.45704,0.22265625 0.43359,0 1.0664,-0.0234375 1.65234,-0.05859375 0.57422,0 1.06641,-0.0234375025 1.17187,-0.0234375025 0.84375,0 1.73438,0.0234375025 2.94141,0.0820312525 1.21875,0.03515625 2.71875,0.09375 4.79297,0.09375 1.52344,0 1.61719,-0.1171875 1.81641,-0.78515625 0.23437,-0.83203124 0.43359,-2.56640624 0.43359,-2.88281254 0,-0.3164062 -0.0352,-0.4335937 -0.17578,-0.4335937 -0.17578,0 -0.23438,0.1523437 -0.25781,0.375 -0.082,0.5507812 -0.375,1.2773437 -0.75,1.734375 -0.69141,0.83203124 -1.95704,0.86718749 -3.49219,0.86718749 -2.25,0 -3,-0.19921879 -3.45703,-0.66796879 -0.51563,-0.515625 -0.63282,-2.3671875 -0.63282,-6.5976562 z M 5.5439891,16.962252 c 0.9140625,1.03125 4.171875,4.675781 7.5234379,8.273437 3.058593,3.292969 7.207031,7.523438 7.523437,7.816406 1.535156,1.535157 1.875,1.851563 2.109375,1.851563 0.199219,0 0.257813,-0.152344 0.257813,-2.050781 l 0.05859,-16.898438 c 0,-1.734375 0.117188,-2.367187 1.066407,-2.566406 0.339843,-0.09375 0.550781,-0.09375 0.691406,-0.09375 0.199219,0 0.316406,-0.08203 0.316406,-0.199219 0,-0.175781 -0.199219,-0.199219 -0.515625,-0.199219 -1.183594,0 -2.132812,0.08203 -2.449219,0.08203 -0.316406,0 -1.710937,-0.08203 -3,-0.08203 -0.351562,0 -0.585937,0.02344 -0.585937,0.199219 0,0.117188 0.03516,0.199219 0.234375,0.199219 0.234375,0 0.890625,0.03516 1.417969,0.152344 0.890625,0.222656 1.089843,0.855468 1.125,2.730468 L 21.63383,30.837252 C 20.708052,29.876314 17.567427,26.360689 14.708052,23.302095 10.266645,18.544283 5.9658641,13.903658 5.5439891,13.41147 5.2510203,13.13022 4.7588328,12.485689 4.5244578,12.485689 c -0.2226562,0 -0.3164062,0.316406 -0.3164062,1.441406 l -0.023437,16.535157 c 0,2.625 -0.140625,3.457031 -0.8671875,3.65625 -0.4335938,0.140625 -0.9492188,0.175781 -1.1835938,0.175781 -0.140625,0 -0.234375,0.05859 -0.234375,0.175781 0,0.199219 0.1757813,0.222656 0.46875,0.222656 1.3007813,0 2.5078125,-0.08203 2.765625,-0.08203 0.2578125,0 1.4179688,0.08203 3.0585938,0.08203 0.3398437,0 0.515625,-0.05859 0.515625,-0.222656 0,-0.117187 -0.082031,-0.175781 -0.2226563,-0.175781 -0.2695312,0 -0.9023437,-0.03516 -1.453125,-0.175781 -0.773438,-0.234375 -1.0664067,-0.984375 -1.1132817,-3.339844 z m 29.3291019,4.300781 c 0,-4.5 0,-5.308594 0.05859,-6.234375 0.05859,-1.007813 0.28125,-1.5 1.066407,-1.640625 0.339843,-0.05859 0.515625,-0.09375 0.714843,-0.09375 0.117188,0 0.234375,-0.05859 0.234375,-0.164063 0,-0.175781 -0.140625,-0.234375 -0.457031,-0.234375 -0.867187,0 -2.683594,0.08203 -2.835937,0.08203 -0.140625,0 -1.957032,-0.08203 -2.90625,-0.08203 -0.316407,0 -0.46875,0.05859 -0.46875,0.234375 0,0.105469 0.117187,0.164063 0.234375,0.164063 0.199218,0 0.574218,0.03516 0.890625,0.117187 0.644531,0.140625 0.925781,0.632813 0.984375,1.617188 0.05859,0.925781 0.05859,1.734375 0.05859,6.234375 v 5.074219 c 0,2.765625 0,5.039062 -0.140625,6.257812 -0.117187,0.832031 -0.257812,1.464844 -0.84375,1.582031 -0.257812,0.05859 -0.597656,0.117188 -0.855468,0.117188 -0.175782,0 -0.234375,0.08203 -0.234375,0.175781 0,0.164063 0.140625,0.222656 0.457031,0.222656 0.867187,0 2.683594,-0.08203 2.824219,-0.08203 0.152343,0 1.96875,0.08203 3.550781,0.08203 0.316406,0 0.457031,-0.08203 0.457031,-0.222656 0,-0.09375 -0.04687,-0.175781 -0.222656,-0.175781 -0.257813,0 -0.890625,-0.05859 -1.300781,-0.117188 -0.867188,-0.117187 -1.042969,-0.75 -1.125,-1.582031 -0.140625,-1.21875 -0.140625,-3.492187 -0.140625,-6.257812 z m -1.21875,-10.59375 c 0.902343,0 1.5,-0.6914064 1.5,-1.5585939 0,-0.8554688 -0.65625,-1.40625 -1.5,-1.40625 -1.03125,0 -1.464844,0.8671875 -1.464844,1.5 0,0.65625 0.433594,1.4648439 1.464844,1.4648439 z m 15.292968,11.015625 c -2.765625,-2.15625 -3.515625,-3.199219 -3.515625,-4.839844 0,-2.109375 1.558594,-3.339844 3.539063,-3.339844 2.660156,0 3.433594,1.207032 3.609375,1.523438 0.175781,0.316406 0.351562,1.089844 0.375,1.441406 0.02344,0.234375 0.05859,0.375 0.234375,0.375 0.140625,0 0.199219,-0.199219 0.199219,-0.667969 0,-1.957031 0.117187,-2.90625 0.117187,-3.046875 0,-0.152343 -0.05859,-0.210937 -0.292969,-0.210937 -0.234375,0 -0.457031,-0.02344 -1.007812,-0.140625 -0.726563,-0.175781 -1.558594,-0.292969 -2.683594,-0.292969 -3.65625,0 -5.964844,2.109375 -5.964844,5.191406 0,1.96875 0.691407,3.75 3.75,6.257813 l 1.289063,1.066406 c 2.484375,2.050781 3.316406,3.210938 3.316406,5.191406 0,1.851563 -1.347656,3.84375 -4.125,3.84375 -1.921875,0 -3.832031,-0.808593 -4.265625,-2.941406 -0.08203,-0.410156 -0.08203,-0.808594 -0.08203,-1.066406 0,-0.234375 -0.03516,-0.316406 -0.199219,-0.316406 -0.152344,0 -0.210937,0.140625 -0.234375,0.457031 -0.03516,0.457031 -0.140625,1.617187 -0.140625,3.058594 0,0.773437 0.02344,0.890625 0.433594,1.089843 1.171875,0.585938 2.507812,0.785157 3.855469,0.785157 0.175781,0 0.351562,0 0.527343,-0.03516 0.164063,0 0.339844,-0.02344 0.515625,-0.05859 l -1.699218,1.417968 c -0.257813,0.199219 -0.375,0.316407 -0.375,0.398438 0,0.117187 0.117187,0.175781 0.433593,0.269531 1.699219,0.480469 2.074219,1.265625 2.074219,2.097656 0,1.042969 -1.125,1.652344 -2.132812,1.757813 -0.316407,0.03516 -0.574219,0.05859 -0.574219,0.316406 0,0.152344 0.164062,0.234375 0.363281,0.234375 0.550781,0 1.476563,-0.175781 2.25,-0.515625 0.984375,-0.410156 2.050781,-1.242187 2.050781,-2.367187 0,-1.183594 -1.089843,-1.875 -2.882812,-2.050782 0.257812,-0.257812 1.699219,-1.640625 2.050781,-1.839843 0.632813,-0.199219 1.207031,-0.46875 1.757813,-0.84375 1.992187,-1.40625 2.449218,-3.597657 2.449218,-4.78125 0,-2.308594 -0.808593,-4.101563 -4.207031,-6.773438 z m 10.242188,9.84375 c -0.527344,1.441406 -1.101563,2.53125 -2.425781,2.707031 -0.234375,0.02344 -0.632813,0.05859 -0.832032,0.05859 -0.152343,0 -0.257812,0.05859 -0.257812,0.175781 0,0.164063 0.164062,0.222656 0.539062,0.222656 1.359375,0 2.941407,-0.08203 3.257813,-0.08203 0.316406,0 1.558594,0.08203 2.25,0.08203 0.269531,0 0.433594,-0.05859 0.433594,-0.222656 0,-0.117187 -0.08203,-0.175781 -0.28125,-0.175781 h -0.292969 c -0.492188,0 -1.089844,-0.257813 -1.089844,-0.832031 0,-0.527344 0.140625,-1.21875 0.398438,-1.933594 l 1.734375,-5.109375 c 0.05859,-0.140625 0.140625,-0.234375 0.28125,-0.234375 h 6.199218 c 0.152344,0 0.210938,0.05859 0.269532,0.175781 l 2.671875,7.101563 c 0.175781,0.457031 0,0.714843 -0.164063,0.773437 -0.117187,0.02344 -0.210937,0.08203 -0.210937,0.199219 0,0.175781 0.316406,0.175781 0.867187,0.199219 1.992188,0.05859 4.101563,0.05859 4.535156,0.05859 0.316407,0 0.574219,-0.05859 0.574219,-0.222656 0,-0.152344 -0.117187,-0.175781 -0.292969,-0.175781 -0.28125,0 -0.714843,-0.03516 -1.148437,-0.175781 -0.609375,-0.175782 -1.441406,-0.632813 -2.484375,-3.199219 -1.757813,-4.382813 -6.28125,-16.289063 -6.714844,-17.390625 -0.351562,-0.890625 -0.46875,-1.042969 -0.632812,-1.042969 -0.175782,0 -0.292969,0.175781 -0.644532,1.125 z m 4.03125,-6.375 c -0.08203,0 -0.140625,-0.05859 -0.08203,-0.199219 l 2.542968,-7.792969 c 0.140625,-0.433593 0.28125,-0.433593 0.421875,0 l 2.742188,7.792969 c 0.03516,0.105469 0.03516,0.199219 -0.117188,0.199219 z m 18.958008,-8.191406 c 0.914062,1.03125 4.171875,4.675781 7.523437,8.273437 3.058594,3.292969 7.207031,7.523438 7.523438,7.816406 1.535156,1.535157 1.875,1.851563 2.109375,1.851563 0.199218,0 0.257812,-0.152344 0.257812,-2.050781 l 0.05859,-16.898438 c 0,-1.734375 0.117187,-2.367187 1.066413,-2.566406 0.33984,-0.09375 0.55078,-0.09375 0.6914,-0.09375 0.19922,0 0.31641,-0.08203 0.31641,-0.199219 0,-0.175781 -0.19922,-0.199219 -0.51563,-0.199219 -1.18359,0 -2.132812,0.08203 -2.449218,0.08203 -0.316406,0 -1.710938,-0.08203 -3,-0.08203 -0.351563,0 -0.585938,0.02344 -0.585938,0.199219 0,0.117188 0.03516,0.199219 0.234375,0.199219 0.234375,0 0.890625,0.03516 1.417969,0.152344 0.890625,0.222656 1.089844,0.855468 1.125,2.730468 l 0.316406,14.660157 c -0.925781,-0.960938 -4.066406,-4.476563 -6.925781,-7.535157 -4.441406,-4.757812 -8.742187,-9.398437 -9.164062,-9.890625 -0.292969,-0.28125 -0.785157,-0.925781 -1.019532,-0.925781 -0.222656,0 -0.316406,0.316406 -0.316406,1.441406 l -0.02344,16.535157 c 0,2.625 -0.140625,3.457031 -0.867188,3.65625 -0.433594,0.140625 -0.949219,0.175781 -1.183594,0.175781 -0.140625,0 -0.234375,0.05859 -0.234375,0.175781 0,0.199219 0.175782,0.222656 0.46875,0.222656 1.300782,0 2.507813,-0.08203 2.765625,-0.08203 0.257813,0 1.417969,0.08203 3.058594,0.08203 0.339844,0 0.515625,-0.05859 0.515625,-0.222656 0,-0.117187 -0.08203,-0.175781 -0.222656,-0.175781 -0.269531,0 -0.902344,-0.03516 -1.453125,-0.175781 -0.773438,-0.234375 -1.066406,-0.984375 -1.113281,-3.339844 z m 33.046875,-2.824219 3.63281,0.05859 c 2.77735,0.05859 3.46875,0.714843 3.55078,1.582031 l 0.0352,0.316406 c 0.0234,0.398438 0.082,0.492188 0.22266,0.492188 0.11718,0 0.19921,-0.117188 0.19921,-0.375 0,-0.316407 0.0937,-2.308594 0.0937,-3.175782 0,-0.175781 0,-0.339843 -0.15234,-0.339843 -0.10547,0 -0.36328,0.08203 -0.79687,0.140625 -0.46875,0.08203 -1.125,0.140625 -2.05079,0.140625 h -10.8164 c -0.35156,0 -1.44141,-0.05859 -2.27344,-0.140625 -0.78516,-0.05859 -1.06641,-0.351563 -1.27734,-0.351563 -0.11719,0 -0.22266,0.375 -0.28125,0.550781 -0.0586,0.234375 -0.63282,2.71875 -0.63282,3 0,0.175782 0.0469,0.257813 0.14063,0.257813 0.11719,0 0.19922,-0.05859 0.28125,-0.28125 0.0937,-0.210938 0.17578,-0.410156 0.49219,-0.902344 0.46875,-0.691406 1.16015,-0.890625 2.9414,-0.914062 l 4.27735,-0.05859 v 12.199219 c 0,2.765625 0,5.039062 -0.15235,6.257812 -0.11718,0.832031 -0.25781,1.464844 -0.83203,1.582031 -0.25781,0.05859 -0.60937,0.117188 -0.86719,0.117188 -0.17578,0 -0.23437,0.08203 -0.23437,0.175781 0,0.164063 0.15234,0.222656 0.46875,0.222656 0.86719,0 2.68359,-0.08203 2.82422,-0.08203 0.14062,0 1.95703,0.08203 3.55078,0.08203 0.31641,0 0.45703,-0.08203 0.45703,-0.222656 0,-0.09375 -0.0586,-0.175781 -0.23437,-0.175781 -0.25782,0 -0.89063,-0.05859 -1.28907,-0.117188 -0.86718,-0.117187 -1.04297,-0.75 -1.125,-1.582031 -0.15234,-1.21875 -0.15234,-3.492187 -0.15234,-6.257812 z m 10.10156,17.390625 c -0.52734,1.441406 -1.10156,2.53125 -2.42578,2.707031 -0.23437,0.02344 -0.63281,0.05859 -0.83203,0.05859 -0.15234,0 -0.25781,0.05859 -0.25781,0.175781 0,0.164063 0.16406,0.222656 0.53906,0.222656 1.35937,0 2.94141,-0.08203 3.25781,-0.08203 0.31641,0 1.5586,0.08203 2.25,0.08203 0.26953,0 0.4336,-0.05859 0.4336,-0.222656 0,-0.117187 -0.082,-0.175781 -0.28125,-0.175781 h -0.29297 c -0.49219,0 -1.08985,-0.257813 -1.08985,-0.832031 0,-0.527344 0.14063,-1.21875 0.39844,-1.933594 l 1.73438,-5.109375 c 0.0586,-0.140625 0.14062,-0.234375 0.28125,-0.234375 h 6.19921 c 0.15235,0 0.21094,0.05859 0.26954,0.175781 l 2.67187,7.101563 c 0.17578,0.457031 0,0.714843 -0.16406,0.773437 -0.11719,0.02344 -0.21094,0.08203 -0.21094,0.199219 0,0.175781 0.31641,0.175781 0.86719,0.199219 1.99219,0.05859 4.10156,0.05859 4.53515,0.05859 0.31641,0 0.57422,-0.05859 0.57422,-0.222656 0,-0.152344 -0.11718,-0.175781 -0.29297,-0.175781 -0.28125,0 -0.71484,-0.03516 -1.14843,-0.175781 -0.60938,-0.175782 -1.44141,-0.632813 -2.48438,-3.199219 -1.75781,-4.382813 -6.28125,-16.289063 -6.71484,-17.390625 -0.35156,-0.890625 -0.46875,-1.042969 -0.63281,-1.042969 -0.17579,0 -0.29297,0.175781 -0.64454,1.125 z m 4.03125,-6.375 c -0.082,0 -0.14062,-0.05859 -0.082,-0.199219 l 2.54297,-7.792969 c 0.14062,-0.433593 0.28125,-0.433593 0.42187,0 l 2.74219,7.792969 c 0.0352,0.105469 0.0352,0.199219 -0.11719,0.199219 z m 22.64649,-3.46875 c -2.76563,-2.15625 -3.51563,-3.199219 -3.51563,-4.839844 0,-2.109375 1.5586,-3.339844 3.53906,-3.339844 2.66016,0 3.4336,1.207032 3.60938,1.523438 0.17578,0.316406 0.35156,1.089844 0.375,1.441406 0.0234,0.234375 0.0586,0.375 0.23437,0.375 0.14063,0 0.19922,-0.199219 0.19922,-0.667969 0,-1.957031 0.11719,-2.90625 0.11719,-3.046875 0,-0.152343 -0.0586,-0.210937 -0.29297,-0.210937 -0.23437,0 -0.45703,-0.02344 -1.00781,-0.140625 -0.72656,-0.175781 -1.55859,-0.292969 -2.68359,-0.292969 -3.65625,0 -5.96485,2.109375 -5.96485,5.191406 0,1.96875 0.69141,3.75 3.75,6.257813 l 1.28906,1.066406 c 2.48438,2.050781 3.31641,3.210938 3.31641,5.191406 0,1.851563 -1.34766,3.84375 -4.125,3.84375 -1.92187,0 -3.83203,-0.808593 -4.26562,-2.941406 -0.082,-0.410156 -0.082,-0.808594 -0.082,-1.066406 0,-0.234375 -0.0351,-0.316406 -0.19921,-0.316406 -0.15235,0 -0.21094,0.140625 -0.23438,0.457031 -0.0352,0.457031 -0.14062,1.617187 -0.14062,3.058594 0,0.773437 0.0234,0.890625 0.43359,1.089843 1.17187,0.585938 2.50781,0.785157 3.85547,0.785157 0.17578,0 0.35156,0 0.52734,-0.03516 0.16406,0 0.33985,-0.02344 0.51563,-0.05859 l -1.69922,1.417968 c -0.25781,0.199219 -0.375,0.316407 -0.375,0.398438 0,0.117187 0.11719,0.175781 0.43359,0.269531 1.69922,0.480469 2.07422,1.265625 2.07422,2.097656 0,1.042969 -1.125,1.652344 -2.13281,1.757813 -0.31641,0.03516 -0.57422,0.05859 -0.57422,0.316406 0,0.152344 0.16406,0.234375 0.36328,0.234375 0.55078,0 1.47656,-0.175781 2.25,-0.515625 0.98438,-0.410156 2.05078,-1.242187 2.05078,-2.367187 0,-1.183594 -1.08984,-1.875 -2.88281,-2.050782 0.25781,-0.257812 1.69922,-1.640625 2.05078,-1.839843 0.63281,-0.199219 1.20703,-0.46875 1.75781,-0.84375 1.99219,-1.40625 2.44922,-3.597657 2.44922,-4.78125 0,-2.308594 -0.80859,-4.101563 -4.20703,-6.773438 z m 15.05566,-0.421875 c 0,-4.5 0,-5.308594 0.0586,-6.234375 0.0586,-1.007813 0.28125,-1.5 1.06641,-1.640625 0.33984,-0.05859 0.51563,-0.09375 0.71484,-0.09375 0.11719,0 0.23438,-0.05859 0.23438,-0.164063 0,-0.175781 -0.14063,-0.234375 -0.45703,-0.234375 -0.86719,0 -2.6836,0.08203 -2.83594,0.08203 -0.14062,0 -1.95703,-0.08203 -2.90625,-0.08203 -0.31641,0 -0.46875,0.05859 -0.46875,0.234375 0,0.105469 0.11719,0.164063 0.23438,0.164063 0.19921,0 0.57421,0.03516 0.89062,0.117187 0.64453,0.140625 0.92578,0.632813 0.98438,1.617188 0.0586,0.925781 0.0586,1.734375 0.0586,6.234375 v 5.074219 c 0,2.765625 0,5.039062 -0.14063,6.257812 -0.11718,0.832031 -0.25781,1.464844 -0.84375,1.582031 -0.25781,0.05859 -0.59765,0.117188 -0.85546,0.117188 -0.17579,0 -0.23438,0.08203 -0.23438,0.175781 0,0.164063 0.14063,0.222656 0.45703,0.222656 0.86719,0 2.6836,-0.08203 2.82422,-0.08203 0.15234,0 1.96875,0.08203 3.55078,0.08203 0.31641,0 0.45703,-0.08203 0.45703,-0.222656 0,-0.09375 -0.0469,-0.175781 -0.22265,-0.175781 -0.25782,0 -0.89063,-0.05859 -1.30078,-0.117188 -0.86719,-0.117187 -1.04297,-0.75 -1.125,-1.582031 -0.14063,-1.21875 -0.14063,-3.492187 -0.14063,-6.257812 z M 3.4580516,60.084322 c 0,4.207031 1.1015625,6.222656 2.5078125,7.582031 2.0507812,1.933594 4.9687499,2.050781 5.9414059,2.050781 1.710938,0 3.867188,-0.292968 5.941407,-2.132812 2.308593,-2.050781 2.660156,-5.507813 2.660156,-8.625 v -3.082031 c 0,-4.5 0,-5.308594 0.05859,-6.234375 0.05859,-1.007813 0.28125,-1.476563 1.066406,-1.640625 0.339844,-0.05859 0.515625,-0.09375 0.714844,-0.09375 0.117187,0 0.234375,-0.05859 0.234375,-0.164063 0,-0.175781 -0.140625,-0.234375 -0.457032,-0.234375 -0.867187,0 -2.226562,0.08203 -2.425781,0.08203 -0.175781,0 -1.757812,-0.08203 -3.058594,-0.08203 -0.316406,0 -0.457031,0.05859 -0.457031,0.234375 0,0.105469 0.105469,0.164063 0.222656,0.164063 0.257813,0 0.75,0.03516 0.984375,0.09375 0.949219,0.199218 1.183594,0.65625 1.242188,1.640625 0.05859,0.925781 0.05859,1.734375 0.05859,6.234375 v 3.597656 c 0,2.976562 -0.351563,5.425781 -1.675782,7.066406 -1.042968,1.242188 -2.765625,2.074219 -4.523437,2.074219 -1.652344,0 -2.9414064,-0.257813 -4.3593752,-1.582031 -1.2421875,-1.183594 -2.1679687,-2.976563 -2.1679687,-7.125 v -4.03125 c 0,-4.5 0,-5.308594 0.058594,-6.234375 0.058594,-1.007813 0.2929688,-1.523438 1.0664063,-1.640625 0.3515625,-0.05859 0.5273437,-0.09375 0.7265625,-0.09375 0.1171875,0 0.234375,-0.05859 0.234375,-0.164063 0,-0.175781 -0.1523438,-0.234375 -0.46875,-0.234375 -0.8671875,0 -2.5898438,0.08203 -2.8476563,0.08203 -0.2695312,0 -2.0273437,-0.08203 -3.3164062,-0.08203 -0.3164063,0 -0.46875004,0.05859 -0.46875004,0.234375 0,0.105469 0.11718754,0.164063 0.23437504,0.164063 0.2578125,0 0.75,0.03516 0.984375,0.09375 0.9492187,0.199218 1.171875,0.65625 1.2304687,1.640625 0.058594,0.925781 0.058594,1.734375 0.058594,6.234375 z M 29.482466,51.576509 c 0.914062,1.03125 4.171875,4.675782 7.523437,8.273438 3.058594,3.292969 7.207031,7.523437 7.523438,7.816406 1.535156,1.535156 1.875,1.851563 2.109375,1.851563 0.199218,0 0.257812,-0.152344 0.257812,-2.050782 l 0.05859,-16.898437 c 0,-1.734375 0.117187,-2.367188 1.066406,-2.566406 0.339844,-0.09375 0.550781,-0.09375 0.691406,-0.09375 0.199219,0 0.316407,-0.08203 0.316407,-0.199219 0,-0.175781 -0.199219,-0.199219 -0.515625,-0.199219 -1.183594,0 -2.132813,0.08203 -2.449219,0.08203 -0.316406,0 -1.710938,-0.08203 -3,-0.08203 -0.351563,0 -0.585938,0.02344 -0.585938,0.199219 0,0.117187 0.03516,0.199219 0.234375,0.199219 0.234375,0 0.890625,0.03516 1.417969,0.152343 0.890625,0.222657 1.089844,0.855469 1.125,2.730469 l 0.316406,14.660156 c -0.925781,-0.960937 -4.066406,-4.476562 -6.925781,-7.535156 -4.441406,-4.757812 -8.742187,-9.398437 -9.164062,-9.890625 -0.292969,-0.28125 -0.785157,-0.925781 -1.019532,-0.925781 -0.222656,0 -0.316406,0.316406 -0.316406,1.441406 l -0.02344,16.535156 c 0,2.625 -0.140625,3.457032 -0.867188,3.65625 -0.433594,0.140625 -0.949219,0.175782 -1.183594,0.175782 -0.140625,0 -0.234375,0.05859 -0.234375,0.175781 0,0.199219 0.175782,0.222656 0.46875,0.222656 1.300782,0 2.507813,-0.08203 2.765625,-0.08203 0.257813,0 1.417969,0.08203 3.058594,0.08203 0.339844,0 0.515625,-0.05859 0.515625,-0.222656 0,-0.117188 -0.08203,-0.175781 -0.222656,-0.175781 -0.269531,0 -0.902344,-0.03516 -1.453125,-0.175782 -0.773438,-0.234375 -1.066406,-0.984375 -1.113281,-3.339843 z m 29.329101,4.300782 c 0,-4.5 0,-5.308594 0.05859,-6.234375 0.05859,-1.007813 0.28125,-1.5 1.066406,-1.640625 0.339844,-0.05859 0.515625,-0.09375 0.714844,-0.09375 0.117187,0 0.234375,-0.05859 0.234375,-0.164063 0,-0.175781 -0.140625,-0.234375 -0.457031,-0.234375 -0.867188,0 -2.683594,0.08203 -2.835938,0.08203 -0.140625,0 -1.957031,-0.08203 -2.90625,-0.08203 -0.316406,0 -0.46875,0.05859 -0.46875,0.234375 0,0.105469 0.117188,0.164063 0.234375,0.164063 0.199219,0 0.574219,0.03516 0.890625,0.117187 0.644531,0.140625 0.925781,0.632813 0.984375,1.617188 0.05859,0.925781 0.05859,1.734375 0.05859,6.234375 v 5.074218 c 0,2.765625 0,5.039063 -0.140625,6.257813 -0.117188,0.832031 -0.257813,1.464844 -0.84375,1.582031 -0.257813,0.05859 -0.597656,0.117188 -0.855469,0.117188 -0.175781,0 -0.234375,0.08203 -0.234375,0.175781 0,0.164062 0.140625,0.222656 0.457031,0.222656 0.867188,0 2.683594,-0.08203 2.824219,-0.08203 0.152344,0 1.96875,0.08203 3.550781,0.08203 0.316407,0 0.457032,-0.08203 0.457032,-0.222656 0,-0.09375 -0.04687,-0.175781 -0.222657,-0.175781 -0.257812,0 -0.890625,-0.05859 -1.300781,-0.117188 -0.867187,-0.117187 -1.042969,-0.75 -1.125,-1.582031 -0.140625,-1.21875 -0.140625,-3.492188 -0.140625,-6.257813 z m 10.992188,-4.851563 c -0.433594,-1.125 -0.785157,-2.015625 -0.785157,-2.390625 0,-0.199219 0.05859,-0.433594 0.375,-0.574219 0.257813,-0.117187 0.785157,-0.152343 1.101563,-0.152343 0.199219,0 0.28125,-0.05859 0.28125,-0.199219 0,-0.140625 -0.257813,-0.199219 -0.773438,-0.199219 -1.101562,0 -2.390625,0.08203 -2.683593,0.08203 -0.351563,0 -1.992188,-0.08203 -3.375,-0.08203 -0.457032,0 -0.75,0.02344 -0.75,0.199219 0,0.117187 0.05859,0.199219 0.234375,0.199219 0.164062,0 0.65625,0 1.089843,0.117187 1.007813,0.292969 1.441407,0.609375 2.074219,2.226563 l 7.066406,17.671875 c 0.550782,1.382812 0.691407,1.792968 1.042969,1.792968 0.292969,0 0.398438,-0.46875 1.207031,-2.191406 0.667969,-1.417969 1.96875,-4.535156 3.726563,-8.742187 1.464844,-3.550782 2.90625,-7.007813 3.222656,-7.816407 0.785156,-1.957031 1.21875,-2.449218 1.59375,-2.707031 0.550781,-0.351562 1.183594,-0.351562 1.382813,-0.351562 0.234375,0 0.339843,-0.05859 0.339843,-0.199219 0,-0.140625 -0.164062,-0.199219 -0.480468,-0.199219 -0.84375,0 -2.085938,0.08203 -2.25,0.08203 -0.351563,0 -1.675782,-0.08203 -2.835938,-0.08203 -0.457031,0 -0.632812,0.05859 -0.632812,0.234375 0,0.140625 0.152343,0.164063 0.316406,0.164063 0.316406,0 0.75,0 1.101562,0.117187 0.292969,0.140625 0.375,0.433594 0.375,0.667969 0,0.257812 -0.117187,0.65625 -0.257812,1.089844 -0.632813,2.074218 -4.5,12.140625 -6.175781,16.007812 z m 20.674804,9.925781 c 0,2.765625 0,5.039063 -0.140625,6.257813 -0.117187,0.832031 -0.257812,1.464844 -0.84375,1.582031 -0.257812,0.05859 -0.597656,0.117188 -0.855468,0.117188 -0.175782,0 -0.234375,0.08203 -0.234375,0.175781 0,0.164062 0.140625,0.222656 0.457031,0.222656 0.433594,0 1.101562,-0.05859 1.675781,-0.05859 0.609375,-0.02344 1.089844,-0.02344 1.148438,-0.02344 0.433593,0 1.125,0.02344 2.25,0.08203 1.125,0.03516 2.71875,0.09375 4.875,0.09375 1.125,0 1.359379,0 1.558589,-0.75 0.14063,-0.609375 0.375,-2.566406 0.375,-2.800781 0,-0.199219 0,-0.433594 -0.17578,-0.433594 -0.14062,0 -0.19922,0.117188 -0.25781,0.433594 -0.19922,1.183594 -0.550781,1.757812 -1.289062,2.074219 -0.75,0.316406 -2.027344,0.316406 -2.777344,0.316406 -2.824218,0 -3.257812,-0.375 -3.339843,-2.355469 -0.03516,-0.609375 0,-3.960937 0,-4.933594 v -2.542968 c 0,-0.117188 0.05859,-0.199219 0.199218,-0.199219 0.492188,0 3.339844,0.05859 4.125,0.140625 1.125,0.117187 1.382813,0.609375 1.5,1.007812 0.117188,0.375 0.117188,0.667969 0.117188,0.960938 0,0.140625 0.05859,0.257812 0.199219,0.257812 0.199218,0 0.199218,-0.316406 0.199218,-0.550781 0,-0.199219 0.05859,-1.265625 0.117188,-1.851562 0.08203,-0.949219 0.234375,-1.441407 0.234375,-1.605469 0,-0.175781 -0.05859,-0.234375 -0.152344,-0.234375 -0.105469,0 -0.222656,0.140625 -0.421875,0.375 -0.269531,0.292969 -0.667969,0.339844 -1.359375,0.398437 -0.667969,0.05859 -4.207031,0.05859 -4.582031,0.05859 -0.152344,0 -0.175781,-0.08203 -0.175781,-0.28125 v -7.96875 c 0,-0.199219 0.05859,-0.28125 0.175781,-0.28125 0.316406,0 3.457031,0.02344 3.949219,0.08203 1.558593,0.175782 1.839843,0.527344 2.039062,0.984375 0.152344,0.339844 0.175781,0.832032 0.175781,1.03125 0,0.234375 0.05859,0.375 0.234375,0.375 0.117188,0 0.175782,-0.164062 0.199219,-0.316406 0.05859,-0.339844 0.117188,-1.605469 0.140625,-1.898437 0.09375,-0.808594 0.234377,-1.148438 0.234377,-1.359375 0,-0.140625 -0.0234,-0.257813 -0.117189,-0.257813 -0.140625,0 -0.257813,0.117188 -0.398438,0.140625 -0.234375,0.05859 -0.691406,0.117188 -1.242187,0.152344 -0.667969,0.02344 -6.398438,0.02344 -6.609375,0.02344 l -1.171875,-0.05859 c -0.644532,-0.02344 -1.417969,-0.02344 -2.085938,-0.02344 -0.316406,0 -0.457031,0.05859 -0.457031,0.234375 0,0.105469 0.117187,0.164063 0.234375,0.164063 0.257812,0 0.75,0.03516 0.972656,0.09375 0.960938,0.199218 1.183594,0.65625 1.242188,1.640625 0.05859,0.925781 0.05859,1.734375 0.05859,6.234375 z m 17.595701,0 c 0,2.765625 0,5.039063 -0.14062,6.257813 -0.11719,0.832031 -0.25782,1.464844 -0.84375,1.582031 -0.25782,0.05859 -0.59766,0.117188 -0.85547,0.117188 -0.17578,0 -0.23438,0.08203 -0.23438,0.175781 0,0.164062 0.14063,0.222656 0.45703,0.222656 0.86719,0 2.6836,-0.08203 2.71875,-0.08203 0.14063,0 1.95704,0.08203 3.53907,0.08203 0.3164,0 0.46875,-0.08203 0.46875,-0.222656 0,-0.09375 -0.0586,-0.175781 -0.23438,-0.175781 -0.25781,0 -0.89062,-0.05859 -1.30078,-0.117188 -0.86719,-0.117187 -1.03125,-0.75 -1.125,-1.582031 -0.14062,-1.21875 -0.14062,-3.492188 -0.14062,-6.257813 v -0.691406 c 0,-0.152344 0.0586,-0.234375 0.19921,-0.234375 l 3.55079,0.05859 c 0.17578,0 0.25781,0.05859 0.375,0.175781 0.57421,0.75 1.93359,2.683594 3.14062,4.265625 1.64063,2.15625 2.66016,3.574219 3.89063,4.242188 0.75,0.398437 1.47656,0.539062 3.09375,0.539062 h 2.03906 c 0.52734,0 0.6914,-0.05859 0.6914,-0.222656 0,-0.09375 -0.10546,-0.175781 -0.25781,-0.175781 -0.16406,0 -0.57422,0 -1.125,-0.08203 -0.71484,-0.117187 -1.95703,-0.433593 -3.51562,-2.085937 -1.67578,-1.78125 -3.63282,-4.347656 -6,-7.382813 2.60156,-2.390625 3.49218,-4.523437 3.49218,-6.65625 0,-1.992187 -1.26562,-3.410156 -1.99218,-3.925781 -1.52344,-1.089844 -3.45703,-1.265625 -5.27344,-1.265625 -0.89063,0 -3.09375,0.08203 -3.41016,0.08203 -0.14062,0 -1.95703,-0.08203 -3.25781,-0.08203 -0.31641,0 -0.45703,0.05859 -0.45703,0.234375 0,0.105469 0.11719,0.164063 0.23437,0.164063 0.25782,0 0.75,0.03516 0.97266,0.09375 0.96094,0.199218 1.18359,0.65625 1.24219,1.640625 0.0586,0.925781 0.0586,1.734375 0.0586,6.234375 z m 2.3086,-12 c 0,-0.175781 0.082,-0.292968 0.23437,-0.351562 0.28125,-0.08203 1.06641,-0.164063 1.93359,-0.164063 3.08204,0 4.98047,2.15625 4.98047,5.765625 0,2.191407 -0.75,3.75 -1.75781,4.441407 -0.65625,0.457031 -1.46484,0.550781 -2.15625,0.550781 -1.27734,0 -2.60156,-0.210938 -3.03516,-0.46875 -0.14062,-0.08203 -0.19921,-0.199219 -0.19921,-0.339844 z m 21.16699,20.765625 c 1.55859,0 3.11719,-0.351562 4.35937,-1.21875 1.99219,-1.40625 2.44922,-3.597656 2.44922,-4.78125 0,-2.308593 -0.80859,-4.101562 -4.20703,-6.773437 l -0.80859,-0.644531 c -2.76563,-2.15625 -3.51563,-3.199219 -3.51563,-4.839844 0,-2.109375 1.5586,-3.339844 3.53906,-3.339844 2.66016,0 3.4336,1.207031 3.60938,1.523438 0.17578,0.316406 0.35156,1.089843 0.375,1.441406 0.0234,0.234375 0.0586,0.375 0.23437,0.375 0.14063,0 0.19922,-0.199219 0.19922,-0.667969 0,-1.957031 0.11719,-2.90625 0.11719,-3.046875 0,-0.152344 -0.0586,-0.210937 -0.29297,-0.210937 -0.23437,0 -0.45703,-0.02344 -1.00781,-0.140625 -0.72656,-0.175782 -1.55859,-0.292969 -2.68359,-0.292969 -3.65625,0 -5.96485,2.109375 -5.96485,5.191406 0,1.96875 0.69141,3.75 3.75,6.257813 l 1.28906,1.066406 c 2.48438,2.050781 3.31641,3.210937 3.31641,5.191406 0,1.851563 -1.34766,3.84375 -4.125,3.84375 -1.92187,0 -3.83203,-0.808594 -4.26562,-2.941406 -0.082,-0.410156 -0.082,-0.808594 -0.082,-1.066406 0,-0.234375 -0.0351,-0.316407 -0.19921,-0.316407 -0.15235,0 -0.21094,0.140625 -0.23438,0.457032 -0.0352,0.457031 -0.14062,1.617187 -0.14062,3.058593 0,0.773438 0.0234,0.890625 0.43359,1.089844 1.17187,0.585938 2.50781,0.785156 3.85547,0.785156 z m 16.84863,-13.839843 c 0,-4.5 0,-5.308594 0.0586,-6.234375 0.0586,-1.007813 0.28125,-1.5 1.06641,-1.640625 0.33984,-0.05859 0.51563,-0.09375 0.71484,-0.09375 0.11719,0 0.23438,-0.05859 0.23438,-0.164063 0,-0.175781 -0.14063,-0.234375 -0.45703,-0.234375 -0.86719,0 -2.6836,0.08203 -2.83594,0.08203 -0.14062,0 -1.95703,-0.08203 -2.90625,-0.08203 -0.31641,0 -0.46875,0.05859 -0.46875,0.234375 0,0.105469 0.11719,0.164063 0.23438,0.164063 0.19921,0 0.57421,0.03516 0.89062,0.117187 0.64453,0.140625 0.92578,0.632813 0.98438,1.617188 0.0586,0.925781 0.0586,1.734375 0.0586,6.234375 v 5.074218 c 0,2.765625 0,5.039063 -0.14063,6.257813 -0.11718,0.832031 -0.25781,1.464844 -0.84375,1.582031 -0.25781,0.05859 -0.59765,0.117188 -0.85546,0.117188 -0.17579,0 -0.23438,0.08203 -0.23438,0.175781 0,0.164062 0.14063,0.222656 0.45703,0.222656 0.86719,0 2.6836,-0.08203 2.82422,-0.08203 0.15234,0 1.96875,0.08203 3.55078,0.08203 0.31641,0 0.45703,-0.08203 0.45703,-0.222656 0,-0.09375 -0.0469,-0.175781 -0.22265,-0.175781 -0.25782,0 -0.89063,-0.05859 -1.30078,-0.117188 -0.86719,-0.117187 -1.04297,-0.75 -1.125,-1.582031 -0.14063,-1.21875 -0.14063,-3.492188 -0.14063,-6.257813 z m 16.40625,-7.125 3.63281,0.05859 c 2.77735,0.05859 3.46875,0.714844 3.55078,1.582032 l 0.0352,0.316406 c 0.0234,0.398437 0.082,0.492187 0.22266,0.492187 0.11718,0 0.19922,-0.117187 0.19922,-0.375 0,-0.316406 0.0937,-2.308593 0.0937,-3.175781 0,-0.175781 0,-0.339844 -0.15235,-0.339844 -0.10547,0 -0.36328,0.08203 -0.79687,0.140625 -0.46875,0.08203 -1.125,0.140625 -2.05078,0.140625 h -10.8164 c -0.35156,0 -1.44141,-0.05859 -2.27344,-0.140625 -0.78515,-0.05859 -1.0664,-0.351562 -1.27734,-0.351562 -0.11719,0 -0.22266,0.375 -0.28125,0.550781 -0.0586,0.234375 -0.63281,2.71875 -0.63281,3 0,0.175781 0.0469,0.257813 0.14062,0.257813 0.11719,0 0.19922,-0.05859 0.28125,-0.28125 0.0937,-0.210938 0.17578,-0.410157 0.49219,-0.902344 0.46875,-0.691406 1.16015,-0.890625 2.9414,-0.914063 l 4.27735,-0.05859 v 12.199218 c 0,2.765625 0,5.039063 -0.15235,6.257813 -0.11718,0.832031 -0.25781,1.464844 -0.83203,1.582031 -0.25781,0.05859 -0.60937,0.117188 -0.86718,0.117188 -0.17579,0 -0.23438,0.08203 -0.23438,0.175781 0,0.164062 0.15234,0.222656 0.46875,0.222656 0.86719,0 2.68359,-0.08203 2.82422,-0.08203 0.14062,0 1.95703,0.08203 3.55078,0.08203 0.31641,0 0.45703,-0.08203 0.45703,-0.222656 0,-0.09375 -0.0586,-0.175781 -0.23437,-0.175781 -0.25782,0 -0.89063,-0.05859 -1.28907,-0.117188 -0.86718,-0.117187 -1.04296,-0.75 -1.125,-1.582031 -0.15234,-1.21875 -0.15234,-3.492188 -0.15234,-6.257813 z m 17.625,15.574218 c 0,0.457032 0,1.664063 -0.082,2.882813 -0.0586,0.832031 -0.31641,1.464844 -0.89063,1.582031 -0.26953,0.05859 -0.60937,0.117188 -0.86718,0.117188 -0.17578,0 -0.23438,0.08203 -0.23438,0.175781 0,0.164062 0.14063,0.222656 0.45703,0.222656 0.86719,0 2.6836,-0.08203 2.83594,-0.08203 0.14063,0 1.95703,0.08203 3.53906,0.08203 0.31641,0 0.46875,-0.08203 0.46875,-0.222656 0,-0.09375 -0.0586,-0.175781 -0.23437,-0.175781 -0.25781,0 -0.89063,-0.05859 -1.30078,-0.117188 -0.86719,-0.117187 -1.125,-0.75 -1.1836,-1.582031 -0.082,-1.21875 -0.082,-2.425781 -0.082,-2.882813 v -2.484375 c 0,-0.949218 0,-1.851562 0.4336,-2.882812 0.51562,-1.242188 4.55859,-8.015625 5.50781,-9.175781 0.63281,-0.773438 0.94922,-1.125 1.52344,-1.464844 0.46875,-0.292969 1.00781,-0.410156 1.33593,-0.410156 0.22266,0 0.375,-0.08203 0.375,-0.222657 0,-0.117187 -0.17578,-0.175781 -0.375,-0.175781 -0.55078,0 -2.625,0.08203 -2.80078,0.08203 -0.23437,0 -1.16015,-0.08203 -1.91015,-0.08203 -0.28125,0 -0.45704,0.05859 -0.45704,0.175781 0,0.140625 0.17579,0.199219 0.4336,0.28125 0.33984,0.09375 0.45703,0.410157 0.45703,0.808594 0,0.375 -0.11719,0.867188 -0.49219,1.476563 -0.57422,0.949218 -4.23047,7.265625 -4.78125,8.472656 -0.51562,-0.832031 -4.83984,-8.273438 -5.30859,-9.105469 -0.23438,-0.433594 -0.375,-0.785156 -0.375,-1.125 0,-0.234375 0.14062,-0.410156 0.375,-0.527344 0.25781,-0.117187 0.43359,-0.140625 0.43359,-0.257812 0,-0.117188 -0.0586,-0.199219 -0.375,-0.199219 -1.125,0 -2.21484,0.08203 -2.42578,0.08203 -0.14062,0 -2.30859,-0.08203 -2.84766,-0.08203 -0.25781,0 -0.375,0.08203 -0.375,0.199219 0,0.140625 0.14063,0.199219 0.28125,0.199219 0.25782,0 0.8086,0.175781 1.24219,0.46875 0.51563,0.339843 1.24219,1.066406 1.95703,2.132812 1.01953,1.5 4.875,7.839844 5.08594,8.308594 0.375,0.832031 0.65625,1.464844 0.65625,3.023437 z m 0,0"
         style="fill:#656263;fill-opacity:1;fill-rule:nonzero;stroke:none"
         aria-label="İSTANBUL&#10;NİŞANTAŞI&#10;UNIVERSITY"
         transform="matrix(1.3333333,0,0,1.3333333,320.36973,131.11413)" />
    </g>
  </g>
</svg>
